<svg xmlns="http://www.w3.org/2000/svg" class="svg-inline--fa fa-user-check fa-w-20 fa-2x text-white" role="img" aria-hidden="true" viewBox="0 0 640 512" data-fa-i2svg="" data-icon="user-check" data-prefix="fas"><path fill="currentColor" d="M 224 256 c 70.7 0 128 -57.3 128 -128 S 294.7 0 224 0 S 96 57.3 96 128 s 57.3 128 128 128 Z m 89.6 32 h -16.7 c -22.2 10.2 -46.9 16 -72.9 16 s -50.6 -5.8 -72.9 -16 h -16.7 C 60.2 288 0 348.2 0 422.4 V 464 c 0 26.5 21.5 48 48 48 h 352 c 26.5 0 48 -21.5 48 -48 v -41.6 c 0 -74.2 -60.2 -134.4 -134.4 -134.4 Z m 323 -128.4 l -27.8 -28.1 c -4.6 -4.7 -12.1 -4.7 -16.8 -0.1 l -104.8 104 l -45.5 -45.8 c -4.6 -4.7 -12.1 -4.7 -16.8 -0.1 l -28.1 27.9 c -4.7 4.6 -4.7 12.1 -0.1 16.8 l 81.7 82.3 c 4.6 4.7 12.1 4.7 16.8 0.1 l 141.3 -140.2 c 4.6 -4.7 4.7 -12.2 0.1 -16.8 Z"/></svg>