<svg xmlns="http://www.w3.org/2000/svg" class="svg-inline--fa fa-users fa-w-20 fa-2x text-white" role="img" aria-hidden="true" viewBox="0 0 640 512" data-fa-i2svg="" data-icon="users" data-prefix="fas"><path fill="currentColor" d="M 96 224 c 35.3 0 64 -28.7 64 -64 s -28.7 -64 -64 -64 s -64 28.7 -64 64 s 28.7 64 64 64 Z m 448 0 c 35.3 0 64 -28.7 64 -64 s -28.7 -64 -64 -64 s -64 28.7 -64 64 s 28.7 64 64 64 Z m 32 32 h -64 c -17.6 0 -33.5 7.1 -45.1 18.6 c 40.3 22.1 68.9 62 75.1 109.4 h 66 c 17.7 0 32 -14.3 32 -32 v -32 c 0 -35.3 -28.7 -64 -64 -64 Z m -256 0 c 61.9 0 112 -50.1 112 -112 S 381.9 32 320 32 S 208 82.1 208 144 s 50.1 112 112 112 Z m 76.8 32 h -8.3 c -20.8 10 -43.9 16 -68.5 16 s -47.6 -6 -68.5 -16 h -8.3 C 179.6 288 128 339.6 128 403.2 V 432 c 0 26.5 21.5 48 48 48 h 288 c 26.5 0 48 -21.5 48 -48 v -28.8 c 0 -63.6 -51.6 -115.2 -115.2 -115.2 Z m -223.7 -13.4 C 161.5 263.1 145.6 256 128 256 H 64 c -35.3 0 -64 28.7 -64 64 v 32 c 0 17.7 14.3 32 32 32 h 65.9 c 6.3 -47.4 34.9 -87.3 75.2 -109.4 Z"/></svg>