<svg xmlns="http://www.w3.org/2000/svg" class="svg-inline--fa fa-desktop fa-w-18 fa-2x text-white" role="img" aria-hidden="true" viewBox="0 0 576 512" data-fa-i2svg="" data-icon="desktop" data-prefix="fas"><path fill="currentColor" d="M 528 0 H 48 C 21.5 0 0 21.5 0 48 v 320 c 0 26.5 21.5 48 48 48 h 192 l -16 48 h -72 c -13.3 0 -24 10.7 -24 24 s 10.7 24 24 24 h 272 c 13.3 0 24 -10.7 24 -24 s -10.7 -24 -24 -24 h -72 l -16 -48 h 192 c 26.5 0 48 -21.5 48 -48 V 48 c 0 -26.5 -21.5 -48 -48 -48 Z m -16 352 H 64 V 64 h 448 v 288 Z"/></svg>